<?xml version="1.0" encoding="utf-8"?>
<!-- Generator: Adobe Illustrator 23.0.5, SVG Export Plug-In . SVG Version: 6.00 Build 0)  -->
<svg version="1.1" id="Layer_1" xmlns="http://www.w3.org/2000/svg" xmlns:xlink="http://www.w3.org/1999/xlink" x="0px" y="0px"
	 viewBox="0 0 1080 810" style="enable-background:new 0 0 1080 810;" xml:space="preserve">
<style type="text/css">
	.st0{fill:url(#SVGID_1_);}
	.st1{fill:url(#SVGID_2_);}
	.st2{fill:url(#SVGID_3_);}
	.st3{fill:url(#SVGID_4_);}
</style>
<g>
	<linearGradient id="SVGID_1_" gradientUnits="userSpaceOnUse" x1="254.0366" y1="473.6593" x2="739.5938" y2="146.8783">
		<stop  offset="0.1077" style="stop-color:#081C4F"/>
		<stop  offset="0.6648" style="stop-color:#1C9391"/>
	</linearGradient>
	<path class="st0" d="M286.74,521.7c-1.56,5.45-2.42,10.12-4.22,14.4c-6.49,15.44-24.94,22.21-39.87,14.89
		c-15.91-7.8-22.2-24.58-14.91-39.87c0.51-1.06,0.84-2.4,1.68-3.09c14.38-11.86,12.01-28.19,11.97-43.97
		c-0.16-64.26-0.37-128.52-0.26-192.77c0.02-11.54-1.42-21.49-9.96-30.75c-9.9-10.73-9.75-24.34-1.88-35.86
		c7.67-11.22,18.82-16.7,31.97-13.33c9.06,2.32,15.8,0.22,23.25-4.11c45.3-26.33,90.67-52.52,136.18-78.46
		c12.17-6.94,22.93-16.54,37.65-20.88c5.17,7.25,12.57,24.03,12.22,24.78c-0.69,1.45-1.59,2.63-2.63,3.63
		c-2.7,2.62-6.28,4.02-9.31,5.78c-48.91,28.36-97.97,56.46-146.97,84.66c-5.61,3.23-11.26,6.43-16.63,10.03
		c-4.41,2.96-8.57,6.41-9.81,12.04c-2,9.02-7.54,15.74-13.93,20.53c0,81.9,0,162.49,0,245.32c27.73-11.69,50.44-28.47,76.74-42.08
		c0-36.15,0-72.43,0-109.17c9.77-2.1,17.76-1.69,27.77-0.28c1.84,18.13,0.59,36.23,0.78,54.24c0.2,18.21,0.04,36.43,0.04,55.03
		c18.97,11.04,37.23,21.62,55.46,32.28c17.77,10.4,35.58,20.74,53.21,31.37c7.26,4.38,13.93,7.16,23.13,4.68
		c13.86-3.74,27.37,3.31,34.2,15.56c5.76,10.34,4.45,24.19-3.13,33.13c-7.71,9.08-24.22,13.36-35.84,8.64
		c-8.7-3.53-14.47-10.7-16.73-19.47c-2.17-8.41-7.47-12.7-14.4-16.63c-33.27-18.9-66.53-37.85-99.48-57.31
		c-7.45-4.4-13.2-5.34-21-0.59C330.91,496.88,309.24,508.81,286.74,521.7z"/>
	<linearGradient id="SVGID_2_" gradientUnits="userSpaceOnUse" x1="331.0589" y1="252.8445" x2="808.704" y2="252.8445">
		<stop  offset="0.1077" style="stop-color:#081C4F"/>
		<stop  offset="0.6648" style="stop-color:#1C9391"/>
	</linearGradient>
	<path class="st1" d="M515.96,212.29c-23.36,13.55-46.26,26.81-69.12,40.12c-10.17,5.92-20.09,12.31-30.46,17.85
		c-12.11,6.47-22.44,13.25-27.36,27.84c-4.46,13.22-22.17,18.81-35.97,14.5c-13.36-4.17-22.94-17.56-21.93-30.65
		c1.11-14.22,12.86-26.59,27.07-28.65c7.74-1.12,15.12,1.15,21.39,2.36c36.29-20.75,71.37-41.19,106.88-60.88
		c9.94-5.51,14.71-12.08,14.09-23.72c-0.81-15.28-0.44-30.64-0.09-45.95c0.33-14.27-1.03-27.13-10.47-39.54
		c-10.23-13.45-3.93-33.07,10.49-41.08c15.37-8.55,36.62-3.88,42.27,12.13c5.59,15.84,17.12,22.48,30.08,29.81
		c49.18,27.82,98.02,56.23,146.97,84.46c10.2,5.88,20.39,11.78,30.44,17.91c6.37,3.89,12.73,4.88,20.21,3.37
		c14.85-3,26.31,1.99,33.17,13.62c7.04,11.92,7.18,24.45-2.29,34.39c-7.58,7.95-7.87,16.44-7.86,25.94
		c0.09,58.93,0.13,117.86-0.01,176.79c-0.02,6.87,1.87,14.22-3.24,20.78c-8.28,4.04-26.43-0.16-26.79-0.6
		c-0.37-0.44-0.85-0.92-0.95-1.44c-0.33-1.73-0.73-3.48-0.73-5.22c-0.04-68.35-0.03-136.7-0.03-205.71
		c-8.06-7.61-15.47-15.99-14.83-28.81c-71.19-41.06-141.81-81.8-214.09-123.49c0,30.51,0,58.6,0,87.72
		c31.41,18.46,62.69,36.83,94.84,55.72c-5.55,8.43-11.01,15.24-14.39,25.32C579.66,250.61,549.59,230.14,515.96,212.29z"/>
	<linearGradient id="SVGID_3_" gradientUnits="userSpaceOnUse" x1="299.4478" y1="478.4946" x2="808.1533" y2="478.4946">
		<stop  offset="0.1077" style="stop-color:#081C4F"/>
		<stop  offset="0.6648" style="stop-color:#1C9391"/>
	</linearGradient>
	<path class="st2" d="M299.45,564.05c4.56-7.82,8.92-15.29,12.85-22.03c5.03-2.35,7.58,0.77,10.5,2.46
		c55.57,32.12,111.18,64.17,166.61,96.53c5.97,3.49,11.29,6.08,18.08,3.12c4.46-1.94,9.61-2.81,13.82-0.87
		c8.81,4.07,15.86,0.78,23.18-3.43c64.83-37.26,129.69-74.47,194.54-111.71c1.51-0.87,2.89-1.98,5.12-3.53
		c-11.02-11.19-24.1-16.58-36.03-23.65c-11.63-6.89-23.32-13.7-36.39-21.38c-33.17,14.78-63.14,36.76-96.9,53.98
		c-4.63-8.2-8.87-15.71-14.07-24.92c29.76-20.63,62.4-36.65,93.16-55.47c2.86-7.72,1.51-15.45,1.55-23.01
		c0.18-34.78-0.02-69.56,0.25-104.34c0.07-8.6-1.48-15.55-7.88-22.28c-10.13-10.67-10.78-24.17-3.83-35.8
		c5.75-9.62,19.09-15.85,30.42-14.2c12.64,1.84,23.58,12.43,25.86,25.71c1.71,9.98-1.68,18.7-8.87,25.56
		c-5.09,4.85-7.12,10.24-7.08,17.23c0.2,43.02,0.1,86.04,0.1,130.4c24.9,14.31,49.8,28.62,74.41,42.77
		c6.82-0.58,13.23-1.69,19.62-1.56c18.59,0.37,31.3,14.45,29.54,32.14c-1.67,16.78-18.64,31.69-34.56,27.58
		c-11.83-3.05-19.97,0.39-29.48,5.98c-60.43,35.46-121.13,70.45-181.78,105.54c-7.65,4.43-14.33,8.28-16.63,18.75
		c-2.97,13.54-14.81,20.1-29.52,20.1c-14.85,0-25.71-6.41-29.34-20.31c-2.22-8.49-6.74-12.99-13.66-16.96
		c-47.99-27.58-95.89-55.33-143.8-83.06C319.19,577.59,307.87,573.69,299.45,564.05z"/>
	<linearGradient id="SVGID_4_" gradientUnits="userSpaceOnUse" x1="382.2126" y1="377.3364" x2="644.054" y2="377.3364">
		<stop  offset="0.1077" style="stop-color:#081C4F"/>
		<stop  offset="0.6648" style="stop-color:#1C9391"/>
	</linearGradient>
	<path class="st3" d="M458.38,363.42c1.38,0.65,1.88,1.57,2.43,2.47c2.42,3.98,4.84,7.96,7.31,11.91
		c8.96,14.35,17.94,28.7,26.9,43.05c3.38,5.4,6.78,10.79,10.09,16.23c0.8,1.31,1.8,1.87,3.27,1.79c0.76-0.04,1.53,0,2.29,0
		c19.28,0,38.56,0,57.83,0c13.55,0,27.1-0.05,40.66-0.01c4.48,0.01,8.73-1.05,12.74-2.8c6.29-2.75,11.52-6.94,15.49-12.61
		c4.76-6.79,6.92-14.39,6.63-22.6c-0.21-5.85-1.62-11.5-4.65-16.6c-0.97-1.63-1.65-3.6-3.63-4.58c-2.6,3.25-5.33,6.17-8.45,8.7
		c-3.08,2.49-6.65,4.26-9.88,6.06c-0.04,0.5-0.09,0.61-0.05,0.68c0.19,0.43,0.41,0.85,0.6,1.28c1.94,4.37,2.09,8.66-0.7,12.75
		c-2.5,3.66-5.95,5.32-10.44,5.3c-20.14-0.08-40.27-0.03-60.41-0.04c-0.93,0-1.92,0.19-2.74-0.44c-0.68-2.66-0.63-21.28,0.09-23.64
		c1.13-0.47,2.38-0.29,3.6-0.29c15.17-0.01,30.35,0,45.52-0.01c3.52,0,6.99-0.2,10.51-0.81c9.75-1.71,17.72-6.33,23.78-14.01
		c6.25-7.92,9.24-16.92,7.9-27.17c-1.47-11.28-7.11-19.88-16.41-26.21c-4.06-2.76-8.6-4.5-13.42-5.34
		c-3.95-0.69-7.97-0.63-11.98-0.62c-23.76,0.03-47.53,0-71.29,0.02c-0.88,0-1.86-0.29-2.63,0.32c0.06,1.33,0.99,2,1.53,2.88
		c6.43,10.44,12.87,20.88,19.36,31.28c0.75,1.21,1.45,2.55,2.82,3.35c0.45-4.33-0.2-8.62,0.37-12.63c1.08-0.9,2.07-0.72,3.01-0.72
		c17.08-0.01,34.17,0,51.25-0.02c2.54,0,4.95,0.54,7.1,1.85c5.79,3.52,8.64,10.98,4.19,17.45c-2.85,4.15-6.89,5.82-11.71,5.84
		c-19.45,0.09-38.9,0.13-58.35,0.16c-5.53,0.01-11.07-0.11-16.6-0.13c-1.11,0-2.3-0.29-3.29,0.56c-0.55,1.19-0.33,2.45-0.34,3.67
		c-0.02,12.5,0,24.99-0.03,37.49c0,1.08,0.34,2.28-0.63,3.24c-0.99-0.66-1.51-1.57-2.06-2.45c-2.91-4.68-5.83-9.36-8.72-14.05
		c-4.14-6.71-8.24-13.45-12.41-20.15c-6.04-9.68-12.15-19.31-18.18-29c-5.38-8.64-10.68-17.32-16.03-25.97
		c-0.49-0.79-1.03-1.55-2.12-2.19c-25.39,40.68-50.72,81.25-76.29,122.21c1.4,0,2.25,0,3.1,0c16.51,0,33.02,0,49.53-0.01
		c1.43,0,2.86,0,4.29-0.02c1.21-0.02,2.11-0.42,2.82-1.56c3.29-5.34,6.72-10.6,10-15.95c1.32-2.16,2.91-4.18,3.83-6.59
		c-0.99-0.65-1.97-0.37-2.89-0.38c-7.54-0.03-15.08,0-22.62-0.03c-0.98,0-2.1,0.33-3.18-0.82
		C437.49,396.86,447.89,380.21,458.38,363.42z"/>
</g>
</svg>
