<?xml version="1.0" encoding="utf-8"?>
<!-- Generator: Adobe Illustrator 23.0.5, SVG Export Plug-In . SVG Version: 6.00 Build 0)  -->
<svg version="1.1" id="Layer_1" xmlns="http://www.w3.org/2000/svg" xmlns:xlink="http://www.w3.org/1999/xlink" x="0px" y="0px"
	 viewBox="0 0 1080 810" style="enable-background:new 0 0 1080 810;" xml:space="preserve">
<style type="text/css">
	.st0{fill:url(#SVGID_1_);}
	.st1{fill:url(#SVGID_2_);}
	.st2{fill:url(#SVGID_3_);}
	.st3{fill:url(#SVGID_4_);}
	.st0, .st1, .st2 {
			fill: url(#SVGID_1_);
			stroke-width: 5; 
			stroke-miterlimit: 5;
		}
<defs>
		<style>
			.st0, .st1, .st2 {
				stroke-dasharray: 2000;
				stroke-dashoffset: 0;
				animation: outline 5s;
				animation-delay: 1600ms;
				animation-direction: alternate;
			}

			@keyframes outline {
				0% {
					stroke-dashoffset: 0;
					stroke: white;
					fill: transparent; 
					stroke: url(#SVGID_1_);
				} 
				50% {
					stroke-dashoffset: 2000;
					fill: url(#SVGID_1_);
				}
				80% {
					stroke: white;
				}
				100% {
					stroke-dashoffset: 0;
					stroke: white;
				}
			}

			.st3 {
				animation: ab-animation calc(1501ms + 7s);
			}
			
			@keyframes ab-animation {
				0% {
					opacity: 0;
				}
				50% {
					opacity: 0;
				}
				100% {
					opacity: 1;
    		}
			}
	</style>
</defs>
</style>
<g>
	<g>
		<linearGradient id="SVGID_1_" gradientUnits="userSpaceOnUse" x1="469.0601" y1="389.3388" x2="507.1418" y2="335.4992">
			<stop  offset="0" style="stop-color:#A8FB87"/>
			<stop  offset="1" style="stop-color:#1C9290"/>
		</linearGradient>
		<path class="st0" d="M384.57,506.43c-1.06,3.69-1.64,6.86-2.86,9.75c-4.4,10.46-16.9,15.05-27.02,10.09
			c-10.78-5.28-15.04-16.66-10.11-27.02c0.34-0.72,0.57-1.62,1.14-2.09c9.75-8.03,8.14-19.1,8.11-29.79
			c-0.11-43.54-0.25-87.08-0.18-130.62c0.01-7.82-0.96-14.56-6.75-20.83c-6.71-7.27-6.61-16.49-1.27-24.3
			c5.2-7.61,12.75-11.31,21.66-9.03c6.14,1.57,10.71,0.15,15.75-2.78c30.69-17.84,61.44-35.59,92.28-53.17
			c8.25-4.7,15.54-11.21,25.51-14.15c3.5,4.91,8.52,16.28,8.28,16.79c-0.47,0.98-1.08,1.78-1.78,2.46
			c-1.83,1.78-4.26,2.73-6.31,3.92c-33.14,19.22-66.38,38.26-99.59,57.36c-3.8,2.19-7.63,4.35-11.27,6.8c-2.99,2-5.8,4.35-6.65,8.16
			c-1.36,6.11-5.11,10.66-9.44,13.91c0,55.5,0,110.1,0,166.23c18.79-7.92,34.18-19.29,52-28.52c0-24.5,0-49.08,0-73.97
			c6.62-1.42,12.03-1.14,18.82-0.19c1.25,12.29,0.4,24.55,0.53,36.75c0.13,12.34,0.03,24.69,0.03,37.29
			c12.85,7.48,25.23,14.65,37.58,21.87c12.04,7.04,24.11,14.05,36.06,21.26c4.92,2.97,9.44,4.85,15.67,3.17
			c9.39-2.53,18.55,2.24,23.18,10.55c3.91,7,3.02,16.39-2.12,22.45c-5.22,6.15-16.41,9.06-24.29,5.85
			c-5.89-2.4-9.8-7.25-11.34-13.19c-1.47-5.7-5.06-8.6-9.76-11.27c-22.55-12.81-45.08-25.65-67.41-38.83
			c-5.05-2.98-8.94-3.62-14.23-0.4C414.5,489.62,399.82,497.7,384.57,506.43z"/>
	</g>
	<linearGradient id="SVGID_2_" gradientUnits="userSpaceOnUse" x1="532.9889" y1="389.2339" x2="680.063" y2="289.4337">
		<stop  offset="0" style="stop-color:#A8FB87"/>
		<stop  offset="1" style="stop-color:#1C9290"/>
	</linearGradient>
	<path class="st1" d="M539.89,296.78c-15.83,9.18-31.34,18.16-46.84,27.18c-6.89,4.01-13.61,8.34-20.64,12.1
		c-8.2,4.38-15.2,8.97-18.54,18.86c-3.02,8.96-15.03,12.74-24.37,9.83c-9.05-2.82-15.55-11.9-14.86-20.77
		c0.75-9.64,8.71-18.02,18.34-19.41c5.25-0.76,10.25,0.78,14.5,1.6c24.59-14.06,48.36-27.91,72.42-41.25
		c6.74-3.74,9.96-8.19,9.55-16.07c-0.55-10.35-0.3-20.76-0.06-31.14c0.22-9.67-0.7-18.39-7.09-26.79
		c-6.93-9.11-2.66-22.41,7.11-27.84c10.42-5.79,24.81-2.63,28.64,8.22c3.79,10.73,11.6,15.23,20.38,20.2
		c33.32,18.85,66.42,38.1,99.58,57.23c6.91,3.98,13.82,7.98,20.63,12.14c4.32,2.64,8.63,3.31,13.69,2.28
		c10.07-2.03,17.83,1.35,22.48,9.23c4.77,8.08,4.87,16.57-1.55,23.3c-5.14,5.39-5.33,11.14-5.32,17.58
		c0.06,39.93,0.08,79.86-0.01,119.79c-0.01,4.65,1.27,9.63-2.2,14.08c-5.61,2.74-17.91-0.11-18.16-0.41
		c-0.25-0.3-0.57-0.62-0.64-0.98c-0.23-1.17-0.49-2.36-0.49-3.54c-0.02-46.31-0.02-92.63-0.02-139.39
		c-5.46-5.16-10.48-10.83-10.05-19.52c-48.24-27.82-96.09-55.43-145.07-83.68c0,20.68,0,39.71,0,59.44
		c21.28,12.51,42.48,24.96,64.26,37.76c-3.76,5.71-7.46,10.32-9.75,17.15C583.05,322.75,562.68,308.88,539.89,296.78z"/>
	<linearGradient id="SVGID_3_" gradientUnits="userSpaceOnUse" x1="470.9901" y1="477.1613" x2="604.9326" y2="477.1613">
		<stop  offset="0" style="stop-color:#A8FB87"/>
		<stop  offset="1" style="stop-color:#1C9290"/>
	</linearGradient>
	<path class="st2" d="M393.18,535.13c3.09-5.3,6.04-10.36,8.71-14.93c3.41-1.59,5.14,0.52,7.12,1.66
		c37.65,21.76,75.34,43.48,112.89,65.41c4.05,2.36,7.65,4.12,12.25,2.11c3.02-1.32,6.51-1.9,9.36-0.59
		c5.97,2.76,10.74,0.53,15.71-2.32c43.93-25.25,87.88-50.46,131.82-75.69c1.03-0.59,1.96-1.34,3.47-2.39
		c-7.47-7.58-16.33-11.24-24.41-16.02c-7.88-4.67-15.8-9.29-24.66-14.49c-22.48,10.01-42.79,24.91-65.66,36.57
		c-3.14-5.55-6.01-10.65-9.54-16.89c20.17-13.98,42.28-24.83,63.12-37.58c1.94-5.23,1.02-10.47,1.05-15.59
		c0.12-23.57-0.01-47.14,0.17-70.7c0.05-5.82-1-10.53-5.34-15.1c-6.87-7.23-7.3-16.38-2.6-24.26c3.9-6.52,12.94-10.74,20.61-9.62
		c8.57,1.25,15.98,8.42,17.52,17.42c1.16,6.76-1.14,12.67-6.01,17.32c-3.45,3.29-4.82,6.94-4.8,11.67
		c0.13,29.15,0.07,58.3,0.07,88.36c16.87,9.7,33.74,19.39,50.42,28.98c4.62-0.39,8.97-1.15,13.3-1.06
		c12.59,0.25,21.21,9.79,20.01,21.78c-1.13,11.37-12.63,21.47-23.42,18.69c-8.01-2.07-13.53,0.27-19.98,4.05
		c-40.95,24.03-82.08,47.74-123.18,71.51c-5.19,3-9.71,5.61-11.27,12.71c-2.01,9.17-10.03,13.62-20,13.62
		c-10.06,0-17.42-4.35-19.88-13.76c-1.5-5.75-4.57-8.8-9.26-11.49c-32.52-18.69-64.97-37.49-97.44-56.28
		C406.56,544.3,398.88,541.67,393.18,535.13z"/>
	<linearGradient id="SVGID_4_" gradientUnits="userSpaceOnUse" x1="466.3911" y1="428.0227" x2="555.686" y2="408.3253">
		<stop  offset="0" style="stop-color:#A8FB87"/>
		<stop  offset="1" style="stop-color:#1C9290"/>
	</linearGradient>
	<path class="st3" d="M500.87,399.18c0.94,0.44,1.27,1.06,1.64,1.67c1.64,2.7,3.28,5.39,4.95,8.07
		c6.07,9.73,12.15,19.45,18.23,29.17c2.29,3.66,4.59,7.31,6.84,11c0.54,0.89,1.22,1.27,2.22,1.21c0.52-0.03,1.03,0,1.55,0
		c13.06,0,26.12,0,39.19,0c9.18,0,18.37-0.03,27.55,0c3.03,0.01,5.92-0.71,8.63-1.9c4.26-1.86,7.8-4.7,10.5-8.54
		c3.23-4.6,4.69-9.75,4.49-15.31c-0.14-3.97-1.1-7.79-3.15-11.25c-0.66-1.11-1.12-2.44-2.46-3.1c-1.76,2.2-3.61,4.18-5.72,5.89
		c-2.09,1.69-4.5,2.88-6.7,4.11c-0.03,0.34-0.06,0.41-0.04,0.46c0.13,0.29,0.28,0.57,0.41,0.87c1.31,2.96,1.42,5.86-0.47,8.64
		c-1.69,2.48-4.03,3.61-7.07,3.59c-13.64-0.05-27.29-0.02-40.93-0.03c-0.63,0-1.3,0.13-1.85-0.3c-0.46-1.8-0.43-14.42,0.06-16.02
		c0.77-0.32,1.61-0.2,2.44-0.2c10.28-0.01,20.56,0,30.85-0.01c2.39,0,4.74-0.13,7.12-0.55c6.61-1.16,12.01-4.29,16.12-9.49
		c4.23-5.37,6.26-11.46,5.36-18.41c-1-7.64-4.82-13.47-11.12-17.76c-2.75-1.87-5.83-3.05-9.09-3.62c-2.68-0.47-5.4-0.43-8.12-0.42
		c-16.1,0.02-32.2,0-48.31,0.02c-0.6,0-1.26-0.19-1.78,0.22c0.04,0.9,0.67,1.36,1.03,1.95c4.35,7.08,8.72,14.15,13.12,21.19
		c0.51,0.82,0.98,1.73,1.91,2.27c0.31-2.93-0.13-5.84,0.25-8.56c0.73-0.61,1.41-0.49,2.04-0.49c11.58-0.01,23.15,0,34.73-0.01
		c1.72,0,3.35,0.37,4.81,1.25c3.92,2.39,5.85,7.44,2.84,11.83c-1.93,2.81-4.67,3.95-7.94,3.96c-13.18,0.06-26.36,0.09-39.54,0.11
		c-3.75,0.01-7.5-0.08-11.25-0.09c-0.75,0-1.56-0.2-2.23,0.38c-0.37,0.81-0.23,1.66-0.23,2.49c-0.01,8.47,0,16.93-0.02,25.4
		c0,0.73,0.23,1.55-0.43,2.19c-0.67-0.45-1.03-1.06-1.4-1.66c-1.97-3.17-3.95-6.34-5.91-9.52c-2.81-4.55-5.58-9.12-8.41-13.65
		c-4.09-6.56-8.23-13.09-12.32-19.65c-3.64-5.85-7.24-11.73-10.86-17.6c-0.33-0.53-0.69-1.05-1.44-1.49
		c-17.21,27.56-34.37,55.06-51.69,82.81c0.95,0,1.52,0,2.1,0c11.19,0,22.37,0,33.56,0c0.97,0,1.94,0,2.91-0.01
		c0.82-0.01,1.43-0.29,1.91-1.06c2.23-3.62,4.56-7.18,6.78-10.81c0.89-1.46,1.97-2.83,2.59-4.46c-0.67-0.44-1.33-0.25-1.96-0.26
		c-5.11-0.02-10.22,0-15.33-0.02c-0.67,0-1.42,0.23-2.16-0.56C486.72,421.84,493.76,410.56,500.87,399.18z"/>
</g>
</svg>
